<svg xmlns="http://www.w3.org/2000/svg" version="1.1" xmlns:xlink="http://www.w3.org/1999/xlink" xmlns:svgjs="http://svgjs.dev/svgjs" width="1440" height="560" preserveAspectRatio="none" viewBox="0 0 1440 560"><g mask="url(&quot;#SvgjsMask1140&quot;)" fill="none"><rect width="1440" height="560" x="0" y="0" fill="rgba(247, 247, 247, 1)"></rect><path d="M -887.3121868128812,262 C -791.31,270.8 -599.31,354 -407.31218681288124,306 C -215.31,258 -119.31,-4.8 72.68781318711876,22 C 264.69,48.8 360.69,399 552.6878131871188,440 C 744.69,481 855.23,233 1032.6878131871188,227 C 1210.15,221 1358.54,373.4 1440,410" stroke="rgba(11, 57, 105, 0.58)" stroke-width="2"></path><path d="M -133.88954939438497,372 C -37.89,308 154.11,51.8 346.11045060561503,52 C 538.11,52.2 634.11,382.6 826.110450605615,373 C 1018.11,363.4 1114.11,-12.6 1306.110450605615,4 C 1498.11,20.6 1759.33,425.4 1786.110450605615,456 C 1812.89,486.6 1509.22,216.8 1440,157" stroke="rgba(11, 57, 105, 0.58)" stroke-width="2"></path><path d="M -416.4757596242837,4 C -320.48,90.8 -128.48,401.4 63.5242403757163,438 C 255.52,474.6 351.52,171.4 543.5242403757163,187 C 735.52,202.6 831.52,521.4 1023.5242403757163,516 C 1215.52,510.6 1420.23,189.8 1503.5242403757163,160 C 1586.82,130.2 1452.7,325.6 1440,367" stroke="rgba(11, 57, 105, 0.58)" stroke-width="2"></path><path d="M -247.0897488421171,496 C -151.09,415.4 40.91,122.2 232.9102511578829,93 C 424.91,63.8 520.91,324.2 712.9102511578828,350 C 904.91,375.8 1000.91,225.4 1192.9102511578828,222 C 1384.91,218.6 1623.49,342 1672.9102511578828,333 C 1722.33,324 1486.58,208.2 1440,177" stroke="rgba(11, 57, 105, 0.58)" stroke-width="2"></path><path d="M -808.8873905297837,100 C -712.89,141.2 -520.89,285.2 -328.88739052978366,306 C -136.89,326.8 -40.89,192.2 151.11260947021634,204 C 343.11,215.8 439.11,398.8 631.1126094702163,365 C 823.11,331.2 949.34,31.4 1111.1126094702163,35 C 1272.89,38.6 1374.22,313.4 1440,383" stroke="rgba(11, 57, 105, 0.58)" stroke-width="2"></path><path d="M -884.3882185201421,533 C -788.39,448.6 -596.39,134.8 -404.3882185201422,111 C -212.39,87.2 -116.39,396.2 75.61178147985783,414 C 267.61,431.8 363.61,201.8 555.6117814798579,200 C 747.61,198.2 858.73,390 1035.6117814798579,405 C 1212.49,420 1359.12,301 1440,275" stroke="rgba(11, 57, 105, 0.58)" stroke-width="2"></path><path d="M -197.78828760802804,4 C -101.79,110.8 90.21,507.8 282.21171239197196,538 C 474.21,568.2 570.21,154.8 762.211712391972,155 C 954.21,155.2 1050.21,565.4 1242.211712391972,539 C 1434.21,512.6 1682.65,70 1722.211712391972,23 C 1761.77,-24 1496.44,247.8 1440,304" stroke="rgba(11, 57, 105, 0.58)" stroke-width="2"></path></g><defs><mask id="SvgjsMask1140"><rect width="1440" height="560" fill="#ffffff"></rect></mask></defs></svg>