<?xml version="1.0" encoding="UTF-8" standalone="no"?>
<svg
   width="799.465"
   height="552.326"
   viewBox="0 0 799.465 552.326"
   role="img"
   artist="Katerina Limpitsouni"
   source="https://undraw.co/"
   version="1.1"
   id="svg21"
   sodipodi:docname="calculations.svg"
   inkscape:version="1.4.2 (ebf0e940d0, 2025-05-08)"
   xmlns:inkscape="http://www.inkscape.org/namespaces/inkscape"
   xmlns:sodipodi="http://sodipodi.sourceforge.net/DTD/sodipodi-0.dtd"
   xmlns="http://www.w3.org/2000/svg"
   xmlns:svg="http://www.w3.org/2000/svg">
  <defs
     id="defs21" />
  <sodipodi:namedview
     id="namedview21"
     pagecolor="#505050"
     bordercolor="#eeeeee"
     borderopacity="1"
     inkscape:showpageshadow="0"
     inkscape:pageopacity="0"
     inkscape:pagecheckerboard="0"
     inkscape:deskcolor="#505050"
     inkscape:zoom="1.8990637"
     inkscape:cx="313.57559"
     inkscape:cy="161.65861"
     inkscape:window-width="1920"
     inkscape:window-height="1011"
     inkscape:window-x="0"
     inkscape:window-y="32"
     inkscape:window-maximized="1"
     inkscape:current-layer="g8" />
  <g
     transform="matrix(0.69549843,0,0,0.69549843,-271.68511,-103.17164)"
     id="g21">
    <path
       d="M 1352.3,232.384 H 580.059 a 13.747,13.747 0 0 0 -13.613,13.848 v 524.66 a 13.74,13.74 0 0 0 13.613,13.819 H 1352.3 a 13.741,13.741 0 0 0 13.613,-13.819 v -524.66 a 13.747,13.747 0 0 0 -13.611,-13.848 z"
       transform="translate(-6.18,31.452)"
       fill="#090814"
       id="path1" />
    <path
       d="m 1328.244,232.384 h -748.6 a 13.225,13.225 0 0 0 -13.2,13.223 v 501.007 a 13.219,13.219 0 0 0 13.2,13.2 h 748.6 a 13.219,13.219 0 0 0 13.2,-13.2 V 245.608 a 13.224,13.224 0 0 0 -13.194,-13.223 z"
       transform="translate(-4.945,34.196)"
       fill="#ffffff"
       id="path2" />
    <g
       transform="translate(39.305,-65)"
       id="g3"
       style="fill:#2a7fff">
      <circle
         cx="42.209"
         cy="42.209"
         transform="translate(658.469,384.59)"
         fill="#6c63ff"
         id="ellipse2"
         r="42.209"
         style="fill:#2a7fff" />
      <path
         d="m 17.8,-54.353 v -4.379 A 14.411,14.411 0 0 1 9.018,-61.869 10.2,10.2 0 0 1 5.566,-69.6 H 11.8 a 5.148,5.148 0 0 0 1.87,3.811 7.911,7.911 0 0 0 4.142,1.637 v -10.464 l -1.9,-0.5 a 15.7,15.7 0 0 1 -6.9,-3.43 7.85,7.85 0 0 1 -2.473,-6.036 9.128,9.128 0 0 1 1.454,-5.118 10.606,10.606 0 0 1 4,-3.573 15.06,15.06 0 0 1 5.807,-1.633 v -4.474 h 2.84 v 4.451 a 14.55,14.55 0 0 1 5.977,1.562 10.585,10.585 0 0 1 3.989,3.551 9.314,9.314 0 0 1 1.515,4.971 h -6.127 a 4.679,4.679 0 0 0 -1.637,-3.2 6.9,6.9 0 0 0 -3.717,-1.491 v 9.871 l 1.586,0.4 a 23.581,23.581 0 0 1 4.983,1.835 10.824,10.824 0 0 1 3.885,3.211 8.271,8.271 0 0 1 1.5,5.09 9.313,9.313 0 0 1 -3.137,7.22 q -3.137,2.84 -8.818,3.172 v 4.379 z m 2.84,-9.82 a 7.418,7.418 0 0 0 4.084,-1.657 4.251,4.251 0 0 0 1.551,-3.338 3.357,3.357 0 0 0 -1.539,-2.971 13.86,13.86 0 0 0 -4.092,-1.716 z M 17.8,-80.392 v -9.113 a 6.361,6.361 0 0 0 -3.586,1.562 3.97,3.97 0 0 0 -1.29,2.982 3.381,3.381 0 0 0 1.5,2.971 12.2,12.2 0 0 0 3.376,1.6 z"
         transform="translate(681.598,503.664)"
         fill="#f2f2f2"
         id="path3"
         style="fill:#ffffff" />
    </g>
    <rect
       width="308"
       height="46"
       rx="6"
       transform="translate(813.305,339)"
       fill="#e6e6e6"
       id="rect3"
       x="0"
       y="0" />
    <path
       d="m 551.391,355.938 -17.978,-21.862 a 5.3,5.3 0 0 0 -8.072,-0.134 L 506.115,355.8 a 5.3,5.3 0 0 0 7.959,7 l 9.947,-11.311 v 28.363 a 5.3,5.3 0 0 0 10.6,0 v -27.623 l 8.586,10.441 a 5.3,5.3 0 0 0 8.186,-6.732 z"
       transform="translate(647.623,3.352)"
       fill="#6c63ff"
       id="path4"
       style="fill:#2a7fff" />
    <g
       transform="translate(697.773,484.014)"
       id="g8">
      <path
         d="M 493.44,473.526 H 235.29 a 9.111,9.111 0 0 1 -9.1,-9.1 v -27.778 a 9.111,9.111 0 0 1 9.1,-9.1 h 258.15 a 9.111,9.111 0 0 1 9.1,9.1 v 27.779 a 9.111,9.111 0 0 1 -9.1,9.1 z M 235.29,428.5 a 8.151,8.151 0 0 0 -8.142,8.142 v 27.779 a 8.151,8.151 0 0 0 8.142,8.142 h 258.15 a 8.151,8.151 0 0 0 8.142,-8.142 v -27.773 a 8.151,8.151 0 0 0 -8.142,-8.144 z"
         transform="translate(-226.19,-427.548)"
         fill="#cccccc"
         id="path5" />
      <path
         d="m 293.616,472.332 a 15.839,15.839 0 1 1 15.839,-15.839 15.839,15.839 0 0 1 -15.839,15.839 z"
         transform="translate(-249.633,-433.504)"
         fill="#6c63ff"
         id="path6"
         style="fill:#0066ff" />
      <path
         d="M 529.174,487.007 H 360.108 a 3.832,3.832 0 1 1 0,-7.663 h 169.066 a 3.832,3.832 0 1 1 0,7.664 z"
         transform="translate(-285.308,-451.086)"
         fill="#6c63ff"
         id="path7"
         style="fill:#0066ff" />
      <path
         d="M 474.089,457.158 H 360.1 a 3.832,3.832 0 1 1 0,-7.664 h 113.989 a 3.832,3.832 0 1 1 0,7.663 z"
         transform="translate(-285.305,-437.521)"
         fill="#6c63ff"
         id="path8"
         style="fill:#0066ff" />
    </g>
    <g
       transform="translate(697.773,562)"
       id="g12">
      <path
         d="M 493.44,473.526 H 235.29 a 9.111,9.111 0 0 1 -9.1,-9.1 v -27.778 a 9.111,9.111 0 0 1 9.1,-9.1 h 258.15 a 9.111,9.111 0 0 1 9.1,9.1 v 27.779 a 9.111,9.111 0 0 1 -9.1,9.1 z M 235.29,428.5 a 8.151,8.151 0 0 0 -8.142,8.142 v 27.779 a 8.151,8.151 0 0 0 8.142,8.142 h 258.15 a 8.151,8.151 0 0 0 8.142,-8.142 v -27.773 a 8.151,8.151 0 0 0 -8.142,-8.144 z"
         transform="translate(-226.19,-427.548)"
         fill="#cccccc"
         id="path9" />
      <path
         d="m 293.616,472.332 a 15.839,15.839 0 1 1 15.839,-15.839 15.839,15.839 0 0 1 -15.839,15.839 z"
         transform="translate(-249.633,-433.504)"
         fill="#e6e6e6"
         id="path10" />
      <path
         d="M 529.174,487.007 H 360.108 a 3.832,3.832 0 1 1 0,-7.663 h 169.066 a 3.832,3.832 0 1 1 0,7.664 z"
         transform="translate(-285.308,-451.086)"
         fill="#e6e6e6"
         id="path11" />
      <path
         d="M 474.089,457.158 H 360.1 a 3.832,3.832 0 1 1 0,-7.664 h 113.989 a 3.832,3.832 0 1 1 0,7.663 z"
         transform="translate(-285.305,-437.521)"
         fill="#e6e6e6"
         id="path12" />
    </g>
    <g
       transform="translate(697.773,639.986)"
       id="g16">
      <path
         d="M 493.44,473.526 H 235.29 a 9.111,9.111 0 0 1 -9.1,-9.1 v -27.778 a 9.111,9.111 0 0 1 9.1,-9.1 h 258.15 a 9.111,9.111 0 0 1 9.1,9.1 v 27.779 a 9.111,9.111 0 0 1 -9.1,9.1 z M 235.29,428.5 a 8.151,8.151 0 0 0 -8.142,8.142 v 27.779 a 8.151,8.151 0 0 0 8.142,8.142 h 258.15 a 8.151,8.151 0 0 0 8.142,-8.142 v -27.773 a 8.151,8.151 0 0 0 -8.142,-8.144 z"
         transform="translate(-226.19,-427.548)"
         fill="#cccccc"
         id="path13" />
      <path
         d="m 293.616,472.332 a 15.839,15.839 0 1 1 15.839,-15.839 15.839,15.839 0 0 1 -15.839,15.839 z"
         transform="translate(-249.633,-433.504)"
         fill="#e6e6e6"
         id="path14" />
      <path
         d="M 529.174,487.007 H 360.108 a 3.832,3.832 0 1 1 0,-7.663 h 169.066 a 3.832,3.832 0 1 1 0,7.664 z"
         transform="translate(-285.308,-451.086)"
         fill="#e6e6e6"
         id="path15" />
      <path
         d="M 474.089,457.158 H 360.1 a 3.832,3.832 0 1 1 0,-7.664 h 113.989 a 3.832,3.832 0 1 1 0,7.663 z"
         transform="translate(-285.305,-437.521)"
         fill="#e6e6e6"
         id="path16" />
    </g>
    <path
       d="M 271.576,431.763 H 252.2 a 1.982,1.982 0 0 1 -1.98,-1.979 v -63.86 a 1.982,1.982 0 0 1 1.98,-1.979 h 19.381 a 1.982,1.982 0 0 1 1.98,1.979 v 63.86 a 1.982,1.982 0 0 1 -1.985,1.979 z"
       transform="translate(785.289,254.201)"
       fill="#6c63ff"
       id="path17"
       style="fill:#2a7fff" />
    <path
       d="m 384.814,375.915 h -19.381 a 1.982,1.982 0 0 1 -1.98,-1.979 v -89.2 a 1.982,1.982 0 0 1 1.98,-1.979 h 19.381 a 1.982,1.982 0 0 1 1.98,1.979 v 89.2 a 1.982,1.982 0 0 1 -1.98,1.979 z"
       transform="translate(707.395,310.049)"
       fill="#6c63ff"
       id="path18"
       style="fill:#2a7fff" />
    <path
       d="M 498.051,431.763 H 478.67 a 1.982,1.982 0 0 1 -1.98,-1.979 v -63.86 a 1.982,1.982 0 0 1 1.98,-1.979 h 19.381 a 1.982,1.982 0 0 1 1.98,1.979 v 63.86 a 1.982,1.982 0 0 1 -1.98,1.979 z"
       transform="translate(629.502,254.201)"
       fill="#6c63ff"
       id="path19"
       style="fill:#2a7fff" />
    <path
       d="m 611.289,353.869 h -19.381 a 1.938,1.938 0 0 1 -1.98,-1.89 V 252.6 a 1.939,1.939 0 0 1 1.98,-1.89 h 19.381 a 1.938,1.938 0 0 1 1.98,1.89 v 99.383 a 1.938,1.938 0 0 1 -1.98,1.886 z"
       transform="translate(551.609,332.096)"
       fill="#6c63ff"
       id="path20"
       style="fill:#2a7fff" />
    <path
       d="m 724.526,314.188 h -19.381 a 1.982,1.982 0 0 1 -1.98,-1.979 V 195 a 1.982,1.982 0 0 1 1.98,-1.979 h 19.381 a 1.982,1.982 0 0 1 1.98,1.979 v 117.209 a 1.982,1.982 0 0 1 -1.98,1.979 z"
       transform="translate(473.715,371.776)"
       fill="#6c63ff"
       id="path21"
       style="fill:#2a7fff" />
  </g>
</svg>
