<?xml version="1.0" encoding="UTF-8" standalone="no"?>
<svg
   width="773.97946"
   height="419.08428"
   viewBox="0 0 773.97946 419.08428"
   role="img"
   artist="Katerina Limpitsouni"
   source="https://undraw.co/"
   version="1.1"
   id="svg28"
   sodipodi:docname="credit.svg"
   inkscape:version="1.4.2 (ebf0e940d0, 2025-05-08)"
   xmlns:inkscape="http://www.inkscape.org/namespaces/inkscape"
   xmlns:sodipodi="http://sodipodi.sourceforge.net/DTD/sodipodi-0.dtd"
   xmlns="http://www.w3.org/2000/svg"
   xmlns:svg="http://www.w3.org/2000/svg">
  <defs
     id="defs28" />
  <sodipodi:namedview
     id="namedview28"
     pagecolor="#505050"
     bordercolor="#eeeeee"
     borderopacity="1"
     inkscape:showpageshadow="0"
     inkscape:pageopacity="0"
     inkscape:pagecheckerboard="0"
     inkscape:deskcolor="#505050"
     inkscape:zoom="0.91585554"
     inkscape:cx="280.066"
     inkscape:cy="341.75695"
     inkscape:window-width="1920"
     inkscape:window-height="1011"
     inkscape:window-x="0"
     inkscape:window-y="32"
     inkscape:window-maximized="1"
     inkscape:current-layer="svg28" />
  <path
     d="m 406.21557,211.83383 v 0.72629 a 25.152927,25.152927 0 0 1 -25.15673,25.14874 H 97.111881 A 25.151139,25.151139 0 0 1 71.963328,212.56012 v -0.72629 z"
     fill="#f2f2f2"
     id="path1"
     style="stroke-width:0.798119" />
  <path
     d="M 131.3511,92.115905 C 110.83144,97.183964 92.410846,81.39716 89.194568,66.751668 l 1.428634,-0.255398 c 17.295218,-3.823009 36.601678,8.539854 40.727898,25.619635 z"
     fill="#6c63ff"
     id="path2"
     style="stroke-width:0.798119" />
  <path
     d="m 627.35,363.34208 c -5.93447,-2.56245 -7.28263,-11.89857 -2.31553,-16.03523 4.9671,-4.13666 13.9052,-1.12156 15.35163,5.17859 l -5.53612,-39.6014 c -1.27277,-9.10444 -2.2912,-19.28201 3.21098,-26.64658 5.15242,-6.89643 15.21791,-9.10594 23.29844,-6.13722 8.08053,2.96871 14.05272,10.37432 16.58647,18.60162 2.53376,8.22729 1.93589,17.16805 -0.27669,25.48746 -2.21258,8.31942 -5.9712,16.1338 -9.77258,23.85764 -3.89529,7.91466 -8.61979,16.49143 -16.9461,19.40476 -7.95395,2.78304 -23.6005,-4.10964 -23.6005,-4.10964 z"
     fill="#f2f2f2"
     id="path3"
     style="stroke-width:0.798119" />
  <path
     d="m 653.35726,279.34912 a 107.95724,107.95724 0 0 1 5.12574,35.15225 110.9335,110.9335 0 0 1 -6.31408,34.81238 105.82692,105.82692 0 0 1 -8.51533,18.27637 1.1980731,1.1980731 0 0 0 2.06746,1.20848 110.06829,110.06829 0 0 0 12.88797,-33.78027 112.93336,112.93336 0 0 0 1.44658,-36.32103 109.0934,109.0934 0 0 0 -4.38951,-19.98471 c -0.47032,-1.46087 -2.78295,-0.83615 -2.30883,0.63652 z"
     fill="#ffffff"
     id="path4"
     style="stroke-width:0.798119" />
  <path
     d="m 623.8317,348.76427 18.95026,19.91434 c 1.06436,1.11852 2.75564,-0.57643 1.69307,-1.69307 l -18.95025,-19.91433 c -1.06437,-1.11852 -2.75565,0.57642 -1.69307,1.69306 z"
     fill="#ffffff"
     id="path5"
     style="stroke-width:0.798119" />
  <path
     d="m 607.73356,273.57238 a 2.8001942,2.8001942 0 0 1 -1.83807,-0.68319 131.71571,131.71571 0 0 1 -30.8564,-27.94082 2.8223819,2.8223819 0 0 1 -0.14906,-3.94149 l 5.74427,-6.34326 1.18315,1.0717 -5.74427,6.34325 a 1.2260073,1.2260073 0 0 0 0.0857,1.73148 l 0.084,0.0884 a 130.11498,130.11498 0 0 0 30.56626,27.68049 l 0.10444,0.0799 a 1.2259674,1.2259674 0 0 0 1.73146,-0.0857 l 11.2076,-12.37707 a 1.2254805,1.2254805 0 0 0 -0.0255,-1.67263 c -2.5972,-1.41507 -5.13111,-2.95787 -7.53362,-4.58646 l 0.89554,-1.3211 c 2.38871,1.61923 4.91012,3.15195 7.49446,4.55606 l 0.15471,0.1099 a 2.8217195,2.8217195 0 0 1 0.19758,3.98592 l -11.20758,12.37708 a 2.8027721,2.8027721 0 0 1 -1.9522,0.924 q -0.0713,0.004 -0.14245,0.004 z"
     fill="#3f3d56"
     id="path6"
     style="stroke-width:0.798119" />
  <path
     d="m 595.3781,252.73632 c 3.51983,3.1845 7.13514,4.93238 8.07706,3.89482 a 1.3010944,1.3010944 0 0 0 0.14341,-1.22112 9.3683264,9.3683264 0 0 0 -1.79577,-3.20046 q -4.69285,-3.34018 -9.12226,-7.20702 c -0.92594,-0.30328 -1.63637,-0.2953 -1.97933,0.0878 a 0.72794083,0.72794083 0 0 0 -0.11964,0.18357 c -0.59078,1.20514 1.46025,4.43756 4.79653,7.46242 z"
     fill="#6c63ff"
     id="path7"
     style="stroke-width:0.798119" />
  <path
     d="m 574.16402,227.07675 a 2.7595061,2.7595061 0 0 0 0.87801,1.90751 138.30787,138.30787 0 0 0 15.53955,16.28962 123.59497,123.59497 0 0 0 13.01699,10.13612 c 0.75837,0.51877 1.52454,1.02159 2.29888,1.51642 a 2.77056,2.77056 0 0 0 1.83552,0.68639 c 0.0479,0 0.0959,-0.008 0.1438,-0.008 a 2.8041609,2.8041609 0 0 0 1.95516,-0.92581 l 11.2056,-12.37086 a 2.8261969,2.8261969 0 0 0 -0.19953,-3.99059 l -0.1516,-0.11174 a 86.32335,86.32335 0 0 1 -30.48013,-27.59098 l -0.11965,-0.14366 a 2.8265321,2.8265321 0 0 0 -3.99059,0.19953 l -11.2056,12.37085 a 2.8135707,2.8135707 0 0 0 -0.72641,2.0352 z m 1.59624,-0.0798 a 1.2149294,1.2149294 0 0 1 0.31138,-0.87793 l 11.20559,-12.37883 a 1.2143947,1.2143947 0 0 1 0.85386,-0.39906 1.197259,1.197259 0 0 1 0.81408,0.2554 87.950292,87.950292 0 0 0 30.87919,27.9661 1.2228388,1.2228388 0 0 1 0.0319,1.66807 l -11.21343,12.37884 a 1.1828131,1.1828131 0 0 1 -0.84605,0.39906 1.2454415,1.2454415 0 0 1 -0.8858,-0.31123 l -0.10406,-0.0798 q -2.53758,-1.62817 -5.0042,-3.40797 -4.69285,-3.34018 -9.12226,-7.20702 a 136.81418,136.81418 0 0 1 -16.44134,-17.0638 l -0.0799,-0.0878 a 1.2490969,1.2490969 0 0 1 -0.399,-0.854 z"
     fill="#3f3d56"
     id="path8"
     style="stroke-width:0.798119" />
  <ellipse
     cx="226.6543"
     cy="600.25629"
     rx="2.5298791"
     ry="8.6015816"
     transform="rotate(-47.83838)"
     fill="#6c63ff"
     id="ellipse8"
     style="fill:#2a7fff;stroke-width:0.798119" />
  <polygon
     points="560.812,359.261 578.906,359.262 578.904,406.55 566.645,406.549 "
     fill="#ffb8b8"
     id="polygon8"
     style="fill:#6c5353"
     transform="matrix(0.79811948,0,0,0.79811948,71.005393,34.896445)" />
  <path
     d="m 535.53549,368.85675 -31.55008,-10e-4 v -0.39906 a 12.279906,12.279906 0 0 1 12.28025,-12.28005 h 7.9e-4 l 19.26964,7.9e-4 z"
     fill="#2f2e41"
     id="path9"
     style="stroke-width:0.798119" />
  <polygon
     points="596.812,359.261 614.906,359.262 614.904,406.55 602.645,406.549 "
     fill="#ffb8b8"
     id="polygon9"
     style="fill:#6c5353"
     transform="matrix(0.79811948,0,0,0.79811948,71.005393,34.896445)" />
  <path
     d="m 564.26779,368.85675 -31.55008,-10e-4 v -0.39906 a 12.279906,12.279906 0 0 1 12.28025,-12.28005 h 7.9e-4 l 19.26964,7.9e-4 z"
     fill="#2f2e41"
     id="path10"
     style="stroke-width:0.798119" />
  <path
     d="m 568.3392,206.84502 -2.33644,138.6285 a 3.1924779,3.1924779 0 0 1 -3.48105,3.12557 l -11.45001,-1.04091 a 3.1924779,3.1924779 0 0 1 -2.8939,-2.93263 l -6.70329,-86.47245 a 0.79811948,0.79811948 0 0 0 -1.59328,0.0315 l -3.35046,88.45219 a 3.1924779,3.1924779 0 0 1 -3.19019,3.07163 h -12.27957 a 3.1924779,3.1924779 0 0 1 -3.18653,-2.99773 L 509.27836,206.04692 560.358,193.277 Z"
     fill="#2f2e41"
     id="path11"
     style="stroke-width:0.798119" />
  <circle
     cx="527.40399"
     cy="66.138039"
     r="19.602636"
     fill="#ffb8b8"
     id="circle11"
     style="fill:#6c5353;stroke-width:0.798119" />
  <path
     d="m 507.52935,210.9689 a 3.5670035,3.5670035 0 0 1 -1.08903,-2.52605 l -1.32228,-94.53117 a 22.747076,22.747076 0 0 1 15.38934,-21.901526 c 1.83647,-8.331928 11.61092,-9.375565 17.30902,-9.250859 a 8.8470107,8.8470107 0 0 1 7.16515,3.929022 l 4.08471,6.126972 9.003,5.277413 a 22.768752,22.768752 0 0 1 10.75085,24.595168 l -1.38599,6.30468 a 144.89065,144.89065 0 0 0 1.355,67.56892 l 2.78914,10.63432 a 3.5910907,3.5910907 0 0 1 -3.74957,4.49176 l -3.23924,-0.24941 a 3.5866212,3.5866212 0 0 1 -3.29828,-3.22287 l -0.53604,-5.36081 a 0.39909964,0.39909964 0 0 0 -0.79423,0 l -0.5189,5.19011 a 3.5911466,3.5911466 0 0 1 -3.51846,3.23379 l -45.83673,0.70537 c -0.0191,0 -0.038,8e-4 -0.0571,8e-4 a 3.5686556,3.5686556 0 0 1 -2.50037,-1.01563 z"
     fill="#3f3d56"
     id="path12"
     style="stroke-width:0.798119" />
  <polygon
     points="547.896,207.768 578.896,157.768 572.896,107.768 568.896,156.768 "
     opacity="0.2"
     id="polygon13"
     transform="matrix(0.79811948,0,0,0.79811948,71.005393,34.896445)" />
  <path
     d="m 504.37272,215.87829 a 8.0256979,8.0256979 0 0 0 0.25349,-12.30386 l 10.67769,-26.44648 -14.5276,2.93365 -7.91247,24.66429 a 8.0692114,8.0692114 0 0 0 11.50888,11.15242 z"
     fill="#ffb8b8"
     id="path14"
     style="fill:#6c5353;stroke-width:0.798119" />
  <path
     d="m 503.59524,204.21446 -8.22351,-2.96377 a 3.610501,3.610501 0 0 1 -2.24675,-4.3255 l 13.56583,-49.65846 2.06829,-44.88026 a 10.230974,10.230974 0 1 1 20.42228,1.2381 l -3.69401,49.1429 -17.28532,49.2585 a 3.5987207,3.5987207 0 0 1 -3.65226,2.39389 3.6093756,3.6093756 0 0 1 -0.95455,-0.2054 z"
     fill="#3f3d56"
     id="path15"
     style="stroke-width:0.798119" />
  <path
     d="m 588.34386,218.47212 a 8.0257139,8.0257139 0 0 0 -4.50654,-11.45164 l -0.33601,-28.5187 -12.27574,8.30444 2.20109,25.80868 a 8.0692034,8.0692034 0 0 0 14.91722,5.85725 z"
     fill="#ffb8b8"
     id="path16"
     style="fill:#6c5353;stroke-width:0.798119" />
  <path
     d="m 583.13254,208.00831 -8.73054,0.43342 a 3.610485,3.610485 0 0 1 -3.73983,-3.12593 l -6.61402,-51.05144 -15.38295,-42.21231 a 10.230982,10.230982 0 1 1 19.32269,-6.72585 l 15.5251,46.7722 3.02756,52.11543 a 3.5987207,3.5987207 0 0 1 -2.44797,3.61623 3.6089287,3.6089287 0 0 1 -0.96004,0.17825 z"
     fill="#3f3d56"
     id="path17"
     style="stroke-width:0.798119" />
  <path
     d="M 687.93535,369.26176 H 383.85183 a 0.79812,0.79812 0 0 1 0,-1.59624 h 304.08352 a 0.79812,0.79812 0 0 1 0,1.59624 z"
     fill="#3f3d56"
     id="path18"
     style="stroke-width:0.798119" />
  <path
     d="m 328.97238,196.94897 c -4.58393,0 -8.22924,-1.36319 -10.836,-4.05217 -5.89139,-6.07786 -5.52234,-17.79284 -5.22577,-27.20621 0.0861,-2.73847 0.1676,-5.32534 0.0853,-7.49211 l -5.9e-4,-0.0327 a 16.071229,16.071229 0 0 1 15.98382,-15.99201 h 38.00301 c 4.57808,0 8.21969,1.36125 10.82469,4.04672 5.8912,6.0728 5.52624,17.78505 5.23317,27.19608 -0.0855,2.74432 -0.1664,5.33664 -0.0824,7.50731 a 16.081309,16.081309 0 0 1 -15.99141,16.02511 z m -14.38077,-38.79453 c 0.0834,2.21861 10e-4,4.82614 -0.0857,7.58643 -0.28702,9.11213 -0.64418,20.4526 4.77664,26.04488 2.32675,2.40021 5.49643,3.56698 9.68967,3.56698 h 37.99173 a 14.474846,14.474846 0 0 0 14.39808,-14.40047 c -0.0855,-2.19323 -0.004,-4.81248 0.0826,-7.58563 0.2837,-9.10979 0.63697,-20.44753 -4.78346,-26.03476 -2.32479,-2.39669 -5.49136,-3.56192 -9.67875,-3.56192 h -38.00087 a 14.471087,14.471087 0 0 0 -14.38992,14.38449 z"
     fill="#3f3d56"
     id="path19"
     style="stroke-width:0.798119" />
  <path
     d="M 122.95506,93.584676 A 35.611237,35.611237 0 0 1 104.14019,88.073829 C 95.888643,82.946462 89.658203,74.734555 87.88036,66.643858 l -0.178188,-0.810985 2.229898,-0.39906 c 17.55318,-3.874072 37.40689,8.610185 41.66015,26.207394 l 0.18647,0.771622 -0.77065,0.190567 a 33.507538,33.507538 0 0 1 -8.05298,0.98128 z M 89.632488,67.109193 c 1.915311,7.421969 7.728191,14.872382 15.350232,19.608878 a 33.272085,33.272085 0 0 0 24.85813,4.519432 C 125.39088,74.842931 106.75725,63.33839 90.261159,66.99622 Z"
     fill="#3f3d56"
     id="path20"
     style="fill:#2a7fff;stroke-width:0.798119" />
  <path
     d="m 100.81329,184.28468 c -5.221787,0 -9.464103,-2.33669 -11.954746,-6.5993 a 16.570596,16.570596 0 0 1 -0.0051,-16.24805 c 2.530462,-4.33549 6.87394,-6.68736 12.238156,-6.60514 h 50.63568 c 5.34609,-0.0682 9.69278,2.27317 12.22479,6.61372 a 16.570557,16.570557 0 0 1 -0.001,16.24572 c -2.53094,4.33042 -6.87647,6.64333 -12.23533,6.59111 h -50.63656 q -0.13314,0.002 -0.26539,0.002 z m 0.0296,-27.8582 c -4.656806,0 -8.418454,2.05922 -10.610841,5.8156 a 14.928162,14.928162 0 0 0 0.0048,14.63778 c 2.229315,3.81601 6.068023,5.88145 10.829851,5.80663 h 50.66063 c 4.7668,0.076 8.6174,-1.98867 10.84515,-5.8004 a 14.928649,14.928649 0 0 0 8.7e-4,-14.63582 c -2.22923,-3.82147 -6.0806,-5.87912 -10.83473,-5.82184 h -50.66376 c -0.0774,-0.001 -0.15511,-0.002 -0.23201,-0.002 z"
     fill="#3f3d56"
     id="path21"
     style="stroke-width:0.798119" />
  <path
     d="m 341.96695,161.15324 h -15.96239 a 3.9905974,3.9905974 0 0 1 0,-7.98119 h 15.96239 a 3.9905974,3.9905974 0 0 1 0,7.98119 z"
     fill="#6c63ff"
     id="path22"
     style="fill:#2a7fff;stroke-width:0.798119" />
  <path
     d="m 341.96695,173.92315 h -15.96239 a 3.9905974,3.9905974 0 0 1 0,-7.98119 h 15.96239 a 3.9905974,3.9905974 0 0 1 0,7.98119 z"
     fill="#6c63ff"
     id="path23"
     style="fill:#2a7fff;stroke-width:0.798119" />
  <path
     d="m 341.96695,186.69307 h -15.96239 a 3.9906,3.9906 0 0 1 0,-7.9812 h 15.96239 a 3.9906,3.9906 0 0 1 0,7.9812 z"
     fill="#6c63ff"
     id="path24"
     style="fill:#2a7fff;stroke-width:0.798119" />
  <path
     d="m 369.90113,161.15324 h -15.96239 a 3.9905974,3.9905974 0 0 1 0,-7.98119 h 15.96239 a 3.9905974,3.9905974 0 0 1 0,7.98119 z"
     fill="#6c63ff"
     id="path25"
     style="fill:#2a7fff;stroke-width:0.798119" />
  <path
     d="m 369.90113,173.92315 h -15.96239 a 3.9905974,3.9905974 0 0 1 0,-7.98119 h 15.96239 a 3.9905974,3.9905974 0 0 1 0,7.98119 z"
     fill="#6c63ff"
     id="path26"
     style="fill:#2a7fff;stroke-width:0.798119" />
  <path
     d="m 369.90113,186.69307 h -15.96239 a 3.9906,3.9906 0 0 1 0,-7.9812 h 15.96239 a 3.9906,3.9906 0 0 1 0,7.9812 z"
     fill="#6c63ff"
     id="path27"
     style="fill:#2a7fff;stroke-width:0.798119" />
  <rect
     x="71.963295"
     y="104.4396"
     width="334.25229"
     height="1.596239"
     fill="#3f3d56"
     id="rect27"
     style="stroke-width:0.798119" />
  <path
     d="M 379.87763,238.17177 H 97.343336 A 26.367745,26.367745 0 0 1 71.005393,211.83383 V 74.557276 A 26.367745,26.367745 0 0 1 97.343336,48.219334 H 379.87763 a 26.367745,26.367745 0 0 1 26.33794,26.337942 V 211.83383 a 26.367745,26.367745 0 0 1 -26.33794,26.33794 z M 97.343336,49.815573 A 24.769861,24.769861 0 0 0 72.601632,74.557276 V 211.83383 a 24.769869,24.769869 0 0 0 24.741704,24.7417 H 379.87763 a 24.769798,24.769798 0 0 0 24.7417,-24.7417 V 74.557276 a 24.769798,24.769798 0 0 0 -24.7417,-24.741703 z"
     fill="#3f3d56"
     id="path28"
     style="stroke-width:0.798119" />
</svg>
