<?xml version="1.0" encoding="UTF-8" standalone="no"?>
<svg
   width="800.273"
   height="513.21"
   viewBox="0 0 800.273 513.21"
   role="img"
   artist="Katerina Limpitsouni"
   source="https://undraw.co/"
   version="1.1"
   id="svg12"
   sodipodi:docname="download.svg"
   inkscape:version="1.4.2 (ebf0e940d0, 2025-05-08)"
   xmlns:inkscape="http://www.inkscape.org/namespaces/inkscape"
   xmlns:sodipodi="http://sodipodi.sourceforge.net/DTD/sodipodi-0.dtd"
   xmlns="http://www.w3.org/2000/svg"
   xmlns:svg="http://www.w3.org/2000/svg">
  <defs
     id="defs12" />
  <sodipodi:namedview
     id="namedview12"
     pagecolor="#505050"
     bordercolor="#eeeeee"
     borderopacity="1"
     inkscape:showpageshadow="0"
     inkscape:pageopacity="0"
     inkscape:pagecheckerboard="0"
     inkscape:deskcolor="#505050"
     inkscape:zoom="0.57107189"
     inkscape:cx="261.78841"
     inkscape:cy="556.84758"
     inkscape:window-width="1920"
     inkscape:window-height="1011"
     inkscape:window-x="0"
     inkscape:window-y="32"
     inkscape:window-maximized="1"
     inkscape:current-layer="svg12" />
  <g
     transform="matrix(0.70656457,0,0,0.70656457,-387.30798,-116.61341)"
     id="g12">
    <path
       d="M 1227.483,688.357 H 448.611 a 10.542,10.542 0 0 1 -10.53,-10.53 V 195.42 h 799.932 v 482.407 a 10.541,10.541 0 0 1 -10.53,10.53 z"
       transform="translate(269.029,96.465)"
       fill="#e6e6e6"
       id="path1" />
    <path
       d="M 1197.4,644.108 H 464.2 A 10.656,10.656 0 0 1 453.555,633.464 V 236.184 A 10.657,10.657 0 0 1 464.2,225.54 h 733.2 a 10.656,10.656 0 0 1 10.644,10.644 v 397.28 a 10.656,10.656 0 0 1 -10.644,10.645 z"
       transform="translate(276.275,110.567)"
       fill="#ffffff"
       id="path2" />
    <path
       d="M 1237.781,216.782 H 437.849 v -24.64 a 10.542,10.542 0 0 1 10.53,-10.53 h 778.872 a 10.542,10.542 0 0 1 10.53,10.53 z"
       transform="translate(268.92,90)"
       fill="#6c63ff"
       id="path3"
       style="fill:#0066ff" />
    <circle
       cx="6.289"
       cy="6.289"
       r="6.289"
       transform="translate(726.314,283.289)"
       fill="#ffffff"
       id="circle3" />
    <circle
       cx="6.289"
       cy="6.289"
       r="6.289"
       transform="translate(750.185,283.289)"
       fill="#ffffff"
       id="circle4" />
    <circle
       cx="6.289"
       cy="6.289"
       r="6.289"
       transform="translate(774.056,283.289)"
       fill="#ffffff"
       id="circle5" />
    <rect
       width="75.568001"
       height="33.448002"
       transform="translate(805.188,407.345)"
       fill="#e6e6e6"
       id="rect5"
       x="0"
       y="0" />
    <rect
       width="75.568001"
       height="33.448002"
       transform="translate(956.324,476.719)"
       fill="#e6e6e6"
       id="rect6"
       x="0"
       y="0" />
    <rect
       width="75.568001"
       height="33.448002"
       transform="translate(805.188,580.779)"
       fill="#6c63ff"
       id="rect7"
       style="fill:#0066ff"
       x="0"
       y="0" />
    <rect
       width="75.568001"
       height="33.448002"
       transform="translate(956.324,650.152)"
       fill="#6c63ff"
       id="rect8"
       style="fill:#0066ff"
       x="0"
       y="0" />
    <rect
       width="75.568001"
       height="33.448002"
       transform="translate(1332.923,684.839)"
       fill="#6c63ff"
       id="rect9"
       style="fill:#0066ff"
       x="0"
       y="0" />
    <rect
       width="75.568001"
       height="33.448002"
       transform="translate(1257.355,546.092)"
       fill="#e6e6e6"
       id="rect10"
       x="0"
       y="0" />
    <rect
       width="151.13499"
       height="33.448002"
       transform="translate(1031.892,546.092)"
       fill="#6c63ff"
       id="rect11"
       style="fill:#0066ff"
       x="0"
       y="0" />
    <rect
       width="151.13499"
       height="33.448002"
       transform="translate(1031.892,371.42)"
       fill="#6c63ff"
       id="rect12"
       style="fill:#0066ff"
       x="0"
       y="0" />
    <path
       d="M 453.414,225.122 V 645.08 H 1209.09 V 225.122 Z m 753.2,34.79 H 1133.77 V 227.6 h 72.842 z M 757.171,503.442 V 471.13 h 148.162 v 32.312 z m 148.162,2.478 v 32.313 H 757.171 V 505.92 Z m 0,-139.16 v 32.312 H 757.171 V 366.76 Z M 757.171,364.282 V 331.97 h 148.162 v 32.313 z m 0,69.58 V 401.55 h 148.162 v 32.313 z m 148.162,2.478 v 32.313 H 757.171 V 436.34 Z M 754.694,399.072 H 681.852 V 366.76 h 72.842 z m 0,2.478 v 32.313 H 681.852 V 401.55 Z m 0,34.79 v 32.313 H 681.852 V 436.34 Z m 0,34.79 v 32.312 H 681.852 V 471.13 Z m 153.117,0 h 72.842 v 32.312 H 907.81 Z m 0,-2.478 V 436.34 h 72.842 v 32.313 z m 0,-34.79 V 401.55 h 72.842 v 32.313 z m 0,-34.79 V 366.76 h 72.842 v 32.312 z m 0,-34.79 V 331.97 h 72.842 v 32.313 z m 0,-34.79 V 297.18 h 72.842 v 32.313 z m -2.478,0 H 757.171 V 297.18 h 148.162 z m -150.639,0 H 681.852 V 297.18 h 72.842 z m 0,2.478 v 32.313 H 681.852 V 331.97 Z m -75.32,32.313 H 606.531 V 331.97 h 72.843 z m 0,2.478 v 32.312 H 606.531 V 366.76 Z m 0,34.79 v 32.313 H 606.531 V 401.55 Z m 0,34.79 v 32.313 H 606.531 V 436.34 Z m 0,34.79 v 32.312 H 606.531 V 471.13 Z m 0,34.79 v 32.313 H 606.531 V 505.92 Z m 2.478,0 h 72.842 v 32.313 h -72.842 z m 72.842,34.79 v 32.312 H 681.852 V 540.71 Z m 2.478,0 h 148.161 v 32.312 H 757.171 Z m 150.639,0 h 72.842 v 32.312 H 907.81 Z m 0,-2.478 V 505.92 h 72.842 v 32.313 z m 75.32,-32.313 h 72.843 v 32.313 H 983.13 Z m 0,-2.478 V 471.13 h 72.843 v 32.312 z m 0,-34.79 V 436.34 h 72.843 v 32.313 z m 0,-34.79 V 401.55 h 72.843 v 32.313 z m 0,-34.79 V 366.76 h 72.843 v 32.312 z m 0,-34.79 V 331.97 h 72.843 v 32.313 z m 0,-34.79 V 297.18 h 72.843 v 32.313 z m 0,-34.79 V 262.39 h 72.843 v 32.31 z m -2.478,0 H 907.81 V 262.39 h 72.842 z m -75.32,0 H 757.171 V 262.39 h 148.162 z m -150.639,0 H 681.852 V 262.39 h 72.842 z m -75.32,0 H 606.531 V 262.39 h 72.843 z m 0,2.478 v 32.313 H 606.531 V 297.18 Z m -75.321,32.313 H 531.211 V 297.18 h 72.842 z m 0,2.478 v 32.313 H 531.211 V 331.97 Z m 0,34.79 v 32.312 H 531.211 V 366.76 Z m 0,34.79 v 32.313 H 531.211 V 401.55 Z m 0,34.79 v 32.313 H 531.211 V 436.34 Z m 0,34.79 v 32.312 H 531.211 V 471.13 Z m 0,34.79 v 32.313 H 531.211 V 505.92 Z m 0,34.79 v 32.312 H 531.211 V 540.71 Z m 2.478,0 h 72.843 v 32.312 h -72.843 z m 72.843,34.79 v 32.313 H 606.531 V 575.5 Z m 2.478,0 h 72.842 v 32.313 h -72.842 z m 75.32,0 h 148.161 v 32.313 H 757.171 Z m 150.639,0 h 72.842 v 32.313 H 907.81 Z m 75.32,0 h 72.843 v 32.313 H 983.13 Z m 0,-2.478 V 540.71 h 72.843 v 32.312 z m 75.321,-32.312 h 72.842 v 32.312 h -72.842 z m 0,-2.478 V 505.92 h 72.842 v 32.313 z m 0,-34.79 V 471.13 h 72.842 v 32.312 z m 0,-34.79 V 436.34 h 72.842 v 32.313 z m 0,-34.79 V 401.55 h 72.842 v 32.313 z m 0,-34.79 V 366.76 h 72.842 v 32.312 z m 0,-34.79 V 331.97 h 72.842 v 32.313 z m 0,-34.79 V 297.18 h 72.842 v 32.313 z m 0,-34.79 V 262.39 h 72.842 v 32.31 z m 0,-34.79 V 227.6 h 72.842 v 32.313 z m -2.478,0 H 983.13 V 227.6 h 72.843 z m -75.321,0 H 907.81 V 227.6 h 72.842 z m -75.32,0 H 757.171 V 227.6 h 148.162 z m -150.639,0 H 681.852 V 227.6 h 72.842 z m -75.32,0 H 606.531 V 227.6 h 72.843 z m -75.321,0 H 531.211 V 227.6 h 72.842 z m 0,2.478 V 294.7 H 531.211 V 262.39 Z M 528.734,294.7 h -72.842 v -32.31 h 72.842 z m 0,2.478 v 32.313 H 455.892 V 297.18 Z m 0,34.79 v 32.313 H 455.892 V 331.97 Z m 0,34.79 v 32.312 h -72.842 v -32.31 z m 0,34.79 v 32.313 H 455.892 V 401.55 Z m 0,34.79 v 32.313 H 455.892 V 436.34 Z m 0,34.79 v 32.312 h -72.842 v -32.31 z m 0,34.79 v 32.313 H 455.892 V 505.92 Z m 0,34.79 v 32.312 h -72.842 v -32.31 z m 0,34.79 v 32.313 H 455.892 V 575.5 Z m 2.478,0 h 72.842 v 32.313 h -72.843 z m 72.842,34.791 V 642.6 h -72.843 v -32.31 z m 2.478,0 h 72.843 V 642.6 h -72.844 z m 75.321,0 h 72.842 V 642.6 h -72.843 z m 75.32,0 h 148.16 V 642.6 H 757.171 Z m 150.639,0 h 72.842 V 642.6 H 907.81 Z m 75.32,0 h 72.843 V 642.6 H 983.13 Z m 75.321,0 h 72.842 V 642.6 h -72.842 z m 0,-2.478 V 575.5 h 72.842 v 32.313 z m 75.32,-32.313 h 72.842 v 32.313 h -72.845 z m 0,-2.478 v -32.31 h 72.842 v 32.312 z m 0,-34.79 v -32.31 h 72.842 v 32.313 z m 0,-34.79 v -32.31 h 72.842 v 32.312 z m 0,-34.79 v -32.31 h 72.842 v 32.313 z m 0,-34.79 v -32.31 h 72.842 v 32.313 z m 0,-34.79 v -32.31 h 72.842 v 32.312 z m 0,-34.79 v -32.31 h 72.842 v 32.313 z m 0,-34.79 v -32.31 h 72.842 v 32.313 z m 0,-34.79 v -32.31 h 72.842 V 294.7 Z M 528.734,227.6 v 32.313 H 455.892 V 227.6 Z m -72.842,382.69 h 72.842 v 32.31 h -72.842 z m 677.878,32.31 v -32.31 h 72.842 v 32.31 z"
       transform="translate(276.207,110.371)"
       fill="#e6e6e6"
       id="path12" />
  </g>
</svg>
