<?xml version="1.0" encoding="UTF-8" standalone="no"?>
<svg
   width="800.496"
   height="394.305"
   viewBox="0 0 800.496 394.305"
   role="img"
   artist="Katerina Limpitsouni"
   source="https://undraw.co/"
   version="1.1"
   id="svg23"
   sodipodi:docname="email.svg"
   inkscape:version="1.4.2 (ebf0e940d0, 2025-05-08)"
   xmlns:inkscape="http://www.inkscape.org/namespaces/inkscape"
   xmlns:sodipodi="http://sodipodi.sourceforge.net/DTD/sodipodi-0.dtd"
   xmlns="http://www.w3.org/2000/svg"
   xmlns:svg="http://www.w3.org/2000/svg">
  <defs
     id="defs23" />
  <sodipodi:namedview
     id="namedview23"
     pagecolor="#505050"
     bordercolor="#eeeeee"
     borderopacity="1"
     inkscape:showpageshadow="0"
     inkscape:pageopacity="0"
     inkscape:pagecheckerboard="0"
     inkscape:deskcolor="#505050"
     inkscape:zoom="0.45058558"
     inkscape:cx="662.47127"
     inkscape:cy="266.32011"
     inkscape:window-width="1920"
     inkscape:window-height="1011"
     inkscape:window-x="0"
     inkscape:window-y="32"
     inkscape:window-maximized="1"
     inkscape:current-layer="svg23" />
  <g
     transform="matrix(0.84342026,0,0,0.84342026,59.917487,28.851345)"
     id="g23">
    <path
       d="m 800.484,435.838 a 1.783,1.783 0 0 1 -1.8,1.451 H 1.775 a 1.747,1.747 0 0 1 -1.748,-1.405 1.689,1.689 0 0 1 1.667,-1.973 h 797.123 a 1.683,1.683 0 0 1 1.667,1.927 z"
       transform="translate(0,-42.984)"
       fill="#090814"
       id="path1" />
    <path
       d="M 752.234,387.232 H 277.44 V 76.66 a 17.391,17.391 0 0 1 17.37,-17.37 h 440.054 a 17.391,17.391 0 0 1 17.37,17.37 z"
       transform="translate(-27.483,-5.873)"
       fill="#090814"
       id="path2" />
    <rect
       width="446.86499"
       height="281.09299"
       transform="translate(263.02,74.589)"
       fill="#ffffff"
       id="rect2"
       x="0"
       y="0" />
    <path
       d="M 765.508,433.11 H 253.73 l -32.758,-6.235 a 6.813,6.813 0 0 1 -5.532,-6.685 v -6.91 h 584.709 v 7.009 a 6.832,6.832 0 0 1 -5.406,6.658 l -29.235,6.153 z"
       transform="translate(-21.341,-40.94)"
       fill="#cccccc"
       id="path3" />
    <path
       d="m 575.237,422.3 h -81.183 a 7.611,7.611 0 0 1 -7.6,-7.6 v -1.41 h 96.4 v 1.41 a 7.611,7.611 0 0 1 -7.6,7.6 z"
       transform="translate(-48.188,-40.941)"
       fill="#2f2e41"
       id="path4" />
    <path
       d="m 92.09,53.831 a 20.731,20.731 0 1 1 26.938,19.785 L 115.019,100.1 94.586,83.075 A 51.551,51.551 0 0 0 101.37,71.12 20.7,20.7 0 0 1 92.09,53.84 Z"
       transform="translate(-9.122,-3.279)"
       fill="#e49497"
       id="path5"
       style="fill:#916f6f" />
    <rect
       width="12.748"
       height="12.748"
       transform="rotate(-143.6,76.1918,172.74831)"
       fill="#e49497"
       id="rect5"
       style="fill:#6c5353"
       x="0"
       y="0" />
    <path
       d="m 18.568,393.727 a 4.162,4.162 0 0 1 0.333,-3.4 5.342,5.342 0 0 1 3.748,-2.045 c 0.252,-0.3 3.442,-3.946 4.667,-4.117 a 4.188,4.188 0 0 1 2,-2.36 2.149,2.149 0 0 1 1.883,0.261 l 0.027,0.018 v 0.036 c 0,0 -0.5,4.324 1.919,6.514 1.378,1.252 3.442,1.586 6.126,0.991 0.144,-0.081 2.054,-1.811 3.306,-2.964 l 0.054,-0.045 8.694,17.929 6.6,8.415 a 3,3 0 0 1 0.054,3.631 3.034,3.034 0 0 1 -2.973,1.171 l -5.451,-1.036 a 15.717,15.717 0 0 1 -6.334,-2.757 l -21.815,-16.08 a 7.6,7.6 0 0 1 -2.856,-4.153 z"
       transform="translate(-1.819,-37.811)"
       fill="#090814"
       id="path6" />
    <rect
       width="12.748"
       height="12.748"
       transform="rotate(180,66.53,190.936)"
       fill="#e49497"
       id="rect6"
       style="fill:#916f6f"
       x="0"
       y="0" />
    <path
       d="m 130.477,432.71 a 4.168,4.168 0 0 1 -1.748,-2.928 5.371,5.371 0 0 1 1.8,-3.874 c 0.027,-0.387 0.423,-5.225 1.315,-6.09 a 4.217,4.217 0 0 1 0.216,-3.09 2.169,2.169 0 0 1 1.667,-0.91 h 0.036 l 0.018,0.027 c 0.018,0.036 2.171,3.775 5.406,4.1 1.856,0.189 3.712,-0.766 5.523,-2.838 0.063,-0.153 0.577,-2.676 0.91,-4.343 V 412.7 l 17.649,9.271 10.307,2.856 a 3,3 0 0 1 0.5,5.595 l -5,2.406 a 15.683,15.683 0 0 1 -6.73,1.532 h -27.1 a 7.568,7.568 0 0 1 -4.757,-1.649 z"
       transform="translate(-12.751,-40.883)"
       fill="#090814"
       id="path7" />
    <path
       d="m 89.592,157.62 -9.982,29.416 56.471,-0.64 -8.424,-26.875 z"
       transform="translate(-7.886,-15.614)"
       fill="#e49497"
       id="path8"
       style="fill:#916f6f" />
    <path
       d="m 74.788,189.337 56.336,-0.034 11.036,201.979 h -21.514 l -13.91,-92.148 -55.8,73.724 -20.366,-18.434 40.74,-55.291 z"
       transform="translate(-3.028,-18.753)"
       fill="#090814"
       id="path9" />
    <path
       d="m 103.774,231.923 -0.432,-20.091 11.73,-0.252 0.432,20.091 a 12.319,12.319 0 0 1 3.712,8.766 c 0.135,6.262 -3.955,11.433 -9.136,11.541 -5.181,0.108 -9.5,-4.874 -9.631,-11.136 a 12.3,12.3 0 0 1 3.325,-8.919 z"
       transform="translate(-9.95,-20.959)"
       fill="#e49497"
       id="path10"
       style="fill:#916f6f" />
    <path
       d="m 89.9,81.728 26.118,8.388 11.018,25.217 6,11 a 12.86,12.86 0 0 1 -2.2,15.253 l -3.8,3.8 5.307,19.451 -49.525,-1.766 -3.144,-44.02 a 27.677,27.677 0 0 1 1.351,-10.739 l 8.865,-26.6 z"
       transform="translate(-7.885,-8.094)"
       fill="#6c63ff"
       id="path11"
       style="fill:#80b3ff" />
    <path
       d="m 119.208,122.56 v 97.373 H 98.838 L 92.82,123.38"
       transform="translate(-9.194,-12.141)"
       fill="#6c63ff"
       id="path12"
       style="fill:#80b3ff" />
    <path
       d="m 84.674,80.7 c 0,0 0.964,7.343 9.937,7.586 l 18.19,0.487 c 0,0 -15.379,-37.425 -9.054,-33.209 6.325,4.216 23.19,-13.46 23.19,-13.46 l 4.973,9.334 c 0,0 11.883,-4.306 -1.288,-14.847 0,0 -15.721,-12.154 -32.407,-4.856 C 81.529,39.033 84.674,80.7 84.674,80.7 Z"
       transform="translate(-8.364,-2.912)"
       fill="#090814"
       id="path13" />
    <path
       d="M 5.871,104.845 -0.5,0.03 l 1,-0.06 6.37,104.815 z"
       transform="translate(83.274,102.977)"
       opacity="0.5"
       id="path14" />
    <path
       d="M -0.41,94.347 -0.5,0 h 1 l 0.09,94.346 z"
       transform="translate(109.924,113.446)"
       id="path15" />
    <path
       d="M 655.436,218.658 H 403.246 A 15.061,15.061 0 0 1 388.2,203.612 V 15.046 A 15.061,15.061 0 0 1 403.246,0 h 252.19 a 15.061,15.061 0 0 1 15.046,15.046 V 203.6 a 15.061,15.061 0 0 1 -15.046,15.046 z"
       transform="translate(-38.455)"
       fill="#cccccc"
       id="path16" />
    <path
       d="m 404.106,8.79 a 7.136,7.136 0 0 0 -7.126,7.126 v 188.558 a 7.136,7.136 0 0 0 7.126,7.126 H 656.3 a 7.136,7.136 0 0 0 7.126,-7.126 V 15.916 A 7.136,7.136 0 0 0 656.3,8.79 Z"
       transform="translate(-39.325,-0.871)"
       fill="#ffffff"
       id="path17" />
    <circle
       cx="39.938999"
       cy="39.938999"
       r="39.938999"
       transform="translate(486.012,34.884)"
       fill="#6c63ff"
       id="circle17"
       style="fill:#0066ff" />
    <path
       d="m 556.177,73.934 a 1.543,1.543 0 0 0 -0.45,2.9 l 18.361,9.226 1,20.523 a 1.545,1.545 0 0 0 2.838,0.766 l 24.83,-38.272 a 1.546,1.546 0 0 0 -1.541,-2.369 l -45.047,7.208 z m 19.631,9.541 -14.415,-7.244 36.893,-5.91 -20.343,31.344 -0.793,-16.118 10.748,-7 a 1.237,1.237 0 1 0 -1.351,-2.072 l -10.748,7 z"
       transform="translate(-54.967,-6.606)"
       fill="#ffffff"
       fill-rule="evenodd"
       id="path18" />
    <path
       d="M 8.7,10.113 -0.707,0.707 0.707,-0.707 10.113,8.7 Z"
       transform="translate(604.719,16.838)"
       fill="#ccc9dd"
       id="path19" />
    <path
       d="M 0.707,10.113 -0.707,8.7 8.7,-0.707 10.113,0.707 Z"
       transform="translate(604.719,16.838)"
       fill="#ccc9dd"
       id="path20" />
    <path
       d="M 47.615,0.75 H 0 v -1.5 h 47.615 z"
       transform="translate(399.999,99.932)"
       fill="#090814"
       id="path21" />
    <path
       d="M 166.259,0.75 H 0 v -1.5 h 166.259 z"
       transform="translate(399.999,137.952)"
       fill="#090814"
       id="path22" />
    <path
       d="M 166.259,0.75 H 0 v -1.5 h 166.259 z"
       transform="translate(399.999,175.971)"
       fill="#090814"
       id="path23" />
  </g>
</svg>
